{
    "asset" : {
        "generator" : "Khronos glTF Blender I/O v1.8.19",
        "version" : "2.0"
    },
    "scene" : 0,
    "scenes" : [
        {
            "name" : "Scene",
            "nodes" : [
                0,
                1,
                2,
                3,
                4,
                5,
                6,
                7,
                8,
                9
            ]
        }
    ],
    "nodes" : [
        {
            "mesh" : 0,
            "name" : "house-1"
        },
        {
            "mesh" : 1,
            "name" : "Cube.001",
            "translation" : [
                0,
                0.009999999776482582,
                0
            ]
        },
        {
            "mesh" : 2,
            "name" : "house-2",
            "rotation" : [
                0,
                0,
                0,
                -1
            ],
            "translation" : [
                2.574343204498291,
                0,
                7.22902250289917
            ]
        },
        {
            "mesh" : 3,
            "name" : "Cube.003",
            "rotation" : [
                0,
                -0.7071068286895752,
                0,
                0.7071068286895752
            ],
            "translation" : [
                4,
                0,
                -3.5
            ]
        },
        {
            "mesh" : 4,
            "name" : "Cube.004",
            "rotation" : [
                0,
                0.7071068286895752,
                0,
                0.7071068286895752
            ],
            "translation" : [
                16.248008728027344,
                1,
                -1
            ]
        },
        {
            "mesh" : 5,
            "name" : "Cube.006",
            "translation" : [
                13.19649887084961,
                1,
                4.50119686126709
            ]
        },
        {
            "mesh" : 6,
            "name" : "Cube.007",
            "rotation" : [
                0,
                0,
                0,
                -1
            ],
            "translation" : [
                2.574343204498291,
                0,
                7.22902250289917
            ]
        },
        {
            "mesh" : 7,
            "name" : "Cube.008",
            "rotation" : [
                0,
                0.7071068286895752,
                0,
                0.7071068286895752
            ],
            "translation" : [
                16.248008728027344,
                1,
                -1
            ]
        },
        {
            "mesh" : 8,
            "name" : "Cube.009",
            "rotation" : [
                0,
                -0.7071068286895752,
                0,
                0.7071068286895752
            ],
            "translation" : [
                4,
                0,
                -3.5
            ]
        },
        {
            "mesh" : 9,
            "name" : "Cube.010",
            "rotation" : [
                0,
                0.7071068286895752,
                0,
                0.7071068286895752
            ],
            "translation" : [
                16.248008728027344,
                1,
                -1
            ]
        }
    ],
    "materials" : [
        {
            "doubleSided" : true,
            "name" : "brown-bricks",
            "pbrMetallicRoughness" : {
                "baseColorTexture" : {
                    "index" : 0
                },
                "metallicFactor" : 0,
                "roughnessFactor" : 0.4000000059604645
            }
        },
        {
            "doubleSided" : true,
            "name" : "black_roof",
            "pbrMetallicRoughness" : {
                "baseColorTexture" : {
                    "index" : 1
                },
                "metallicFactor" : 0,
                "roughnessFactor" : 0.4000000059604645
            }
        },
        {
            "doubleSided" : true,
            "name" : "concrete",
            "pbrMetallicRoughness" : {
                "baseColorTexture" : {
                    "index" : 2
                },
                "metallicFactor" : 0,
                "roughnessFactor" : 0.4000000059604645
            }
        },
        {
            "doubleSided" : true,
            "name" : "concrete-dark-texture",
            "pbrMetallicRoughness" : {
                "baseColorTexture" : {
                    "index" : 3
                },
                "metallicFactor" : 0,
                "roughnessFactor" : 0.4000000059604645
            }
        }
    ],
    "meshes" : [
        {
            "name" : "Cube",
            "primitives" : [
                {
                    "attributes" : {
                        "POSITION" : 0,
                        "NORMAL" : 1,
                        "TEXCOORD_0" : 2
                    },
                    "indices" : 3,
                    "material" : 0
                }
            ]
        },
        {
            "name" : "Cube.001",
            "primitives" : [
                {
                    "attributes" : {
                        "POSITION" : 4,
                        "NORMAL" : 5,
                        "TEXCOORD_0" : 6
                    },
                    "indices" : 7,
                    "material" : 1
                }
            ]
        },
        {
            "name" : "Cube.002",
            "primitives" : [
                {
                    "attributes" : {
                        "POSITION" : 8,
                        "NORMAL" : 9,
                        "TEXCOORD_0" : 10
                    },
                    "indices" : 11,
                    "material" : 0
                }
            ]
        },
        {
            "name" : "Cube.003",
            "primitives" : [
                {
                    "attributes" : {
                        "POSITION" : 12,
                        "NORMAL" : 13,
                        "TEXCOORD_0" : 14
                    },
                    "indices" : 15,
                    "material" : 2
                }
            ]
        },
        {
            "name" : "Cube.004",
            "primitives" : [
                {
                    "attributes" : {
                        "POSITION" : 16,
                        "NORMAL" : 17,
                        "TEXCOORD_0" : 18
                    },
                    "indices" : 19,
                    "material" : 0
                }
            ]
        },
        {
            "name" : "Cube.006",
            "primitives" : [
                {
                    "attributes" : {
                        "POSITION" : 20,
                        "NORMAL" : 21,
                        "TEXCOORD_0" : 22
                    },
                    "indices" : 23,
                    "material" : 1
                }
            ]
        },
        {
            "name" : "Cube.007",
            "primitives" : [
                {
                    "attributes" : {
                        "POSITION" : 24,
                        "NORMAL" : 25,
                        "TEXCOORD_0" : 26
                    },
                    "indices" : 27,
                    "material" : 1
                }
            ]
        },
        {
            "name" : "Cube.008",
            "primitives" : [
                {
                    "attributes" : {
                        "POSITION" : 28,
                        "NORMAL" : 29,
                        "TEXCOORD_0" : 30
                    },
                    "indices" : 31,
                    "material" : 3
                }
            ]
        },
        {
            "name" : "Cube.009",
            "primitives" : [
                {
                    "attributes" : {
                        "POSITION" : 32,
                        "NORMAL" : 33,
                        "TEXCOORD_0" : 34
                    },
                    "indices" : 35
                }
            ]
        },
        {
            "name" : "Cube.010",
            "primitives" : [
                {
                    "attributes" : {
                        "POSITION" : 36,
                        "NORMAL" : 37,
                        "TEXCOORD_0" : 38
                    },
                    "indices" : 39,
                    "material" : 3
                }
            ]
        }
    ],
    "textures" : [
        {
            "sampler" : 0,
            "source" : 0
        },
        {
            "sampler" : 0,
            "source" : 1
        },
        {
            "sampler" : 0,
            "source" : 2
        },
        {
            "sampler" : 0,
            "source" : 3
        }
    ],
    "images" : [
        {
            "mimeType" : "image/jpeg",
            "name" : "bricks-texture",
            "uri" : "bricks-texture.jpg"
        },
        {
            "mimeType" : "image/jpeg",
            "name" : "bricks-dark-texture",
            "uri" : "bricks-dark-texture.jpg"
        },
        {
            "mimeType" : "image/jpeg",
            "name" : "concrete-texture",
            "uri" : "concrete-texture.jpg"
        },
        {
            "mimeType" : "image/jpeg",
            "name" : "concrete-dark-texture",
            "uri" : "concrete-dark-texture.jpg"
        }
    ],
    "accessors" : [
        {
            "bufferView" : 0,
            "componentType" : 5126,
            "count" : 154,
            "max" : [
                4,
                6,
                0
            ],
            "min" : [
                -2.248089551925659,
                0,
                -3.5
            ],
            "type" : "VEC3"
        },
        {
            "bufferView" : 1,
            "componentType" : 5126,
            "count" : 154,
            "type" : "VEC3"
        },
        {
            "bufferView" : 2,
            "componentType" : 5126,
            "count" : 154,
            "type" : "VEC2"
        },
        {
            "bufferView" : 3,
            "componentType" : 5123,
            "count" : 300,
            "type" : "SCALAR"
        },
        {
            "bufferView" : 4,
            "componentType" : 5126,
            "count" : 40,
            "max" : [
                4.2811126708984375,
                6.159999847412109,
                0.30000001192092896
            ],
            "min" : [
                -0.28111276030540466,
                3.3047828674316406,
                -3.5
            ],
            "type" : "VEC3"
        },
        {
            "bufferView" : 5,
            "componentType" : 5126,
            "count" : 40,
            "type" : "VEC3"
        },
        {
            "bufferView" : 6,
            "componentType" : 5126,
            "count" : 40,
            "type" : "VEC2"
        },
        {
            "bufferView" : 7,
            "componentType" : 5123,
            "count" : 60,
            "type" : "SCALAR"
        },
        {
            "bufferView" : 8,
            "componentType" : 5126,
            "count" : 128,
            "max" : [
                4,
                5.5176615715026855,
                0
            ],
            "min" : [
                -3.3484039306640625,
                0,
                -3.5
            ],
            "type" : "VEC3"
        },
        {
            "bufferView" : 9,
            "componentType" : 5126,
            "count" : 128,
            "type" : "VEC3"
        },
        {
            "bufferView" : 10,
            "componentType" : 5126,
            "count" : 128,
            "type" : "VEC2"
        },
        {
            "bufferView" : 11,
            "componentType" : 5123,
            "count" : 216,
            "type" : "SCALAR"
        },
        {
            "bufferView" : 12,
            "componentType" : 5126,
            "count" : 138,
            "max" : [
                4,
                2.5999999046325684,
                0
            ],
            "min" : [
                0,
                -3,
                -2
            ],
            "type" : "VEC3"
        },
        {
            "bufferView" : 13,
            "componentType" : 5126,
            "count" : 138,
            "type" : "VEC3"
        },
        {
            "bufferView" : 14,
            "componentType" : 5126,
            "count" : 138,
            "type" : "VEC2"
        },
        {
            "bufferView" : 15,
            "componentType" : 5123,
            "count" : 288,
            "type" : "SCALAR"
        },
        {
            "bufferView" : 16,
            "componentType" : 5126,
            "count" : 152,
            "max" : [
                6,
                3.920016288757324,
                1
            ],
            "min" : [
                -1,
                -1,
                -3
            ],
            "type" : "VEC3"
        },
        {
            "bufferView" : 17,
            "componentType" : 5126,
            "count" : 152,
            "type" : "VEC3"
        },
        {
            "bufferView" : 18,
            "componentType" : 5126,
            "count" : 152,
            "type" : "VEC2"
        },
        {
            "bufferView" : 19,
            "componentType" : 5123,
            "count" : 258,
            "type" : "SCALAR"
        },
        {
            "bufferView" : 20,
            "componentType" : 5126,
            "count" : 72,
            "max" : [
                3.1045830249786377,
                2.8949851989746094,
                4.406705379486084
            ],
            "min" : [
                -4.542064666748047,
                1.1559783220291138,
                -1.399999976158142
            ],
            "type" : "VEC3"
        },
        {
            "bufferView" : 21,
            "componentType" : 5126,
            "count" : 72,
            "type" : "VEC3"
        },
        {
            "bufferView" : 22,
            "componentType" : 5126,
            "count" : 72,
            "type" : "VEC2"
        },
        {
            "bufferView" : 23,
            "componentType" : 5123,
            "count" : 108,
            "type" : "SCALAR"
        },
        {
            "bufferView" : 24,
            "componentType" : 5126,
            "count" : 40,
            "max" : [
                4.493415832519531,
                5.616049289703369,
                0
            ],
            "min" : [
                -0.4961496591567993,
                3.0738749504089355,
                -3.5
            ],
            "type" : "VEC3"
        },
        {
            "bufferView" : 25,
            "componentType" : 5126,
            "count" : 40,
            "type" : "VEC3"
        },
        {
            "bufferView" : 26,
            "componentType" : 5126,
            "count" : 40,
            "type" : "VEC2"
        },
        {
            "bufferView" : 27,
            "componentType" : 5123,
            "count" : 60,
            "type" : "SCALAR"
        },
        {
            "bufferView" : 28,
            "componentType" : 5126,
            "count" : 56,
            "max" : [
                6,
                2.6604197025299072,
                0.6000000238418579
            ],
            "min" : [
                3,
                2.1604197025299072,
                -2.5999999046325684
            ],
            "type" : "VEC3"
        },
        {
            "bufferView" : 29,
            "componentType" : 5126,
            "count" : 56,
            "type" : "VEC3"
        },
        {
            "bufferView" : 30,
            "componentType" : 5126,
            "count" : 56,
            "type" : "VEC2"
        },
        {
            "bufferView" : 31,
            "componentType" : 5123,
            "count" : 84,
            "type" : "SCALAR"
        },
        {
            "bufferView" : 32,
            "componentType" : 5126,
            "count" : 108,
            "max" : [
                3.770902395248413,
                -0.04544711112976074,
                -0.20432782173156738
            ],
            "min" : [
                0.31237173080444336,
                -2.0513386726379395,
                -1.7956721782684326
            ],
            "type" : "VEC3"
        },
        {
            "bufferView" : 33,
            "componentType" : 5126,
            "count" : 108,
            "type" : "VEC3"
        },
        {
            "bufferView" : 34,
            "componentType" : 5126,
            "count" : 108,
            "type" : "VEC2"
        },
        {
            "bufferView" : 35,
            "componentType" : 5123,
            "count" : 204,
            "type" : "SCALAR"
        },
        {
            "bufferView" : 36,
            "componentType" : 5126,
            "count" : 92,
            "max" : [
                3,
                4.422094345092773,
                1
            ],
            "min" : [
                -1,
                3.920016288757324,
                -3
            ],
            "type" : "VEC3"
        },
        {
            "bufferView" : 37,
            "componentType" : 5126,
            "count" : 92,
            "type" : "VEC3"
        },
        {
            "bufferView" : 38,
            "componentType" : 5126,
            "count" : 92,
            "type" : "VEC2"
        },
        {
            "bufferView" : 39,
            "componentType" : 5123,
            "count" : 162,
            "type" : "SCALAR"
        }
    ],
    "bufferViews" : [
        {
            "buffer" : 0,
            "byteLength" : 1848,
            "byteOffset" : 0
        },
        {
            "buffer" : 0,
            "byteLength" : 1848,
            "byteOffset" : 1848
        },
        {
            "buffer" : 0,
            "byteLength" : 1232,
            "byteOffset" : 3696
        },
        {
            "buffer" : 0,
            "byteLength" : 600,
            "byteOffset" : 4928
        },
        {
            "buffer" : 0,
            "byteLength" : 480,
            "byteOffset" : 5528
        },
        {
            "buffer" : 0,
            "byteLength" : 480,
            "byteOffset" : 6008
        },
        {
            "buffer" : 0,
            "byteLength" : 320,
            "byteOffset" : 6488
        },
        {
            "buffer" : 0,
            "byteLength" : 120,
            "byteOffset" : 6808
        },
        {
            "buffer" : 0,
            "byteLength" : 1536,
            "byteOffset" : 6928
        },
        {
            "buffer" : 0,
            "byteLength" : 1536,
            "byteOffset" : 8464
        },
        {
            "buffer" : 0,
            "byteLength" : 1024,
            "byteOffset" : 10000
        },
        {
            "buffer" : 0,
            "byteLength" : 432,
            "byteOffset" : 11024
        },
        {
            "buffer" : 0,
            "byteLength" : 1656,
            "byteOffset" : 11456
        },
        {
            "buffer" : 0,
            "byteLength" : 1656,
            "byteOffset" : 13112
        },
        {
            "buffer" : 0,
            "byteLength" : 1104,
            "byteOffset" : 14768
        },
        {
            "buffer" : 0,
            "byteLength" : 576,
            "byteOffset" : 15872
        },
        {
            "buffer" : 0,
            "byteLength" : 1824,
            "byteOffset" : 16448
        },
        {
            "buffer" : 0,
            "byteLength" : 1824,
            "byteOffset" : 18272
        },
        {
            "buffer" : 0,
            "byteLength" : 1216,
            "byteOffset" : 20096
        },
        {
            "buffer" : 0,
            "byteLength" : 516,
            "byteOffset" : 21312
        },
        {
            "buffer" : 0,
            "byteLength" : 864,
            "byteOffset" : 21828
        },
        {
            "buffer" : 0,
            "byteLength" : 864,
            "byteOffset" : 22692
        },
        {
            "buffer" : 0,
            "byteLength" : 576,
            "byteOffset" : 23556
        },
        {
            "buffer" : 0,
            "byteLength" : 216,
            "byteOffset" : 24132
        },
        {
            "buffer" : 0,
            "byteLength" : 480,
            "byteOffset" : 24348
        },
        {
            "buffer" : 0,
            "byteLength" : 480,
            "byteOffset" : 24828
        },
        {
            "buffer" : 0,
            "byteLength" : 320,
            "byteOffset" : 25308
        },
        {
            "buffer" : 0,
            "byteLength" : 120,
            "byteOffset" : 25628
        },
        {
            "buffer" : 0,
            "byteLength" : 672,
            "byteOffset" : 25748
        },
        {
            "buffer" : 0,
            "byteLength" : 672,
            "byteOffset" : 26420
        },
        {
            "buffer" : 0,
            "byteLength" : 448,
            "byteOffset" : 27092
        },
        {
            "buffer" : 0,
            "byteLength" : 168,
            "byteOffset" : 27540
        },
        {
            "buffer" : 0,
            "byteLength" : 1296,
            "byteOffset" : 27708
        },
        {
            "buffer" : 0,
            "byteLength" : 1296,
            "byteOffset" : 29004
        },
        {
            "buffer" : 0,
            "byteLength" : 864,
            "byteOffset" : 30300
        },
        {
            "buffer" : 0,
            "byteLength" : 408,
            "byteOffset" : 31164
        },
        {
            "buffer" : 0,
            "byteLength" : 1104,
            "byteOffset" : 31572
        },
        {
            "buffer" : 0,
            "byteLength" : 1104,
            "byteOffset" : 32676
        },
        {
            "buffer" : 0,
            "byteLength" : 736,
            "byteOffset" : 33780
        },
        {
            "buffer" : 0,
            "byteLength" : 324,
            "byteOffset" : 34516
        }
    ],
    "samplers" : [
        {
            "magFilter" : 9729,
            "minFilter" : 9987
        }
    ],
    "buffers" : [
        {
            "byteLength" : 34840,
            "uri" : "street-art.bin"
        }
    ]
}
